<mxfile host="app.diagrams.net" modified="2021-06-12T13:17:26.112Z" agent="5.0 (X11)" etag="_bAGUjR4GxKzXNhPuFYf" version="14.7.7" type="github">
  <diagram id="8qXPDX3EQQnFkM_k7iUx" name="Page-1">
    <mxGraphModel dx="2272" dy="804" grid="1" gridSize="10" guides="1" tooltips="1" connect="1" arrows="1" fold="1" page="1" pageScale="1" pageWidth="850" pageHeight="1100" math="0" shadow="0">
      <root>
        <mxCell id="0" />
        <mxCell id="1" parent="0" />
        <mxCell id="pafvheG6Qlxp3huOtjGh-1" value="" style="shape=image;verticalLabelPosition=bottom;labelBackgroundColor=#ffffff;verticalAlign=top;aspect=fixed;imageAspect=0;image=https://cdns.iconmonstr.com/wp-content/assets/preview/2012/240/iconmonstr-database-2.png;" vertex="1" parent="1">
          <mxGeometry x="1020" y="90" width="180" height="180" as="geometry" />
        </mxCell>
        <mxCell id="pafvheG6Qlxp3huOtjGh-3" value="&lt;meta charset=&quot;utf-8&quot;&gt;&lt;span style=&quot;&quot;&gt;&lt;/span&gt;" style="text;whiteSpace=wrap;html=1;" vertex="1" parent="1">
          <mxGeometry x="30" y="420" width="30" height="20" as="geometry" />
        </mxCell>
        <mxCell id="pafvheG6Qlxp3huOtjGh-5" value="&lt;font style=&quot;font-size: 50px&quot;&gt;&lt;b&gt;CLIENT&lt;/b&gt;&lt;/font&gt;" style="rounded=1;whiteSpace=wrap;html=1;arcSize=8;" vertex="1" parent="1">
          <mxGeometry x="-720" y="90" width="490" height="320" as="geometry" />
        </mxCell>
        <mxCell id="pafvheG6Qlxp3huOtjGh-6" value="&lt;font style=&quot;font-size: 50px&quot;&gt;&lt;b&gt;&amp;nbsp;&amp;nbsp;&amp;nbsp; SERVER&lt;/b&gt;&lt;/font&gt;" style="rounded=1;whiteSpace=wrap;html=1;arcSize=8;" vertex="1" parent="1">
          <mxGeometry x="-100" y="90" width="490" height="320" as="geometry" />
        </mxCell>
        <mxCell id="pafvheG6Qlxp3huOtjGh-7" value="&lt;font style=&quot;font-size: 50px&quot;&gt;&lt;b&gt;&amp;nbsp;&amp;nbsp;&amp;nbsp;&amp;nbsp;&amp;nbsp;&amp;nbsp;&amp;nbsp;&amp;nbsp;&amp;nbsp; DATABASE&lt;/b&gt;&lt;/font&gt;" style="rounded=1;whiteSpace=wrap;html=1;arcSize=8;" vertex="1" parent="1">
          <mxGeometry x="480" y="100" width="490" height="320" as="geometry" />
        </mxCell>
        <mxCell id="pafvheG6Qlxp3huOtjGh-8" value="&lt;font size=&quot;1&quot; face=&quot;Tahoma&quot;&gt;&lt;b style=&quot;font-size: 20px&quot;&gt;HTTP MIDDLEWARE&lt;/b&gt;&lt;/font&gt;" style="rounded=0;whiteSpace=wrap;html=1;rotation=90;" vertex="1" parent="1">
          <mxGeometry x="-180" y="220" width="250" height="60" as="geometry" />
        </mxCell>
        <mxCell id="pafvheG6Qlxp3huOtjGh-10" value="&lt;div&gt;&lt;font size=&quot;1&quot; face=&quot;Tahoma&quot;&gt;&lt;b style=&quot;font-size: 20px&quot;&gt;RESTful API&lt;/b&gt;&lt;/font&gt;&lt;/div&gt;" style="rounded=0;whiteSpace=wrap;html=1;rotation=90;" vertex="1" parent="1">
          <mxGeometry x="-120" y="220" width="250" height="60" as="geometry" />
        </mxCell>
        <mxCell id="pafvheG6Qlxp3huOtjGh-11" value="&lt;font size=&quot;1&quot; face=&quot;Tahoma&quot;&gt;&lt;b style=&quot;font-size: 20px&quot;&gt;HTTP MIDDLEWARE&lt;/b&gt;&lt;/font&gt;" style="rounded=0;whiteSpace=wrap;html=1;rotation=90;" vertex="1" parent="1">
          <mxGeometry x="-410" y="220" width="250" height="60" as="geometry" />
        </mxCell>
        <mxCell id="pafvheG6Qlxp3huOtjGh-13" value="&lt;div&gt;&lt;font size=&quot;1&quot; face=&quot;Tahoma&quot;&gt;&lt;b style=&quot;font-size: 20px&quot;&gt;ODM LIBRARY&lt;/b&gt;&lt;/font&gt;&lt;/div&gt;" style="rounded=0;whiteSpace=wrap;html=1;rotation=90;" vertex="1" parent="1">
          <mxGeometry x="200" y="218" width="250" height="60" as="geometry" />
        </mxCell>
        <mxCell id="pafvheG6Qlxp3huOtjGh-14" value="&lt;font style=&quot;font-size: 50px&quot;&gt;&lt;b&gt;EXTERNAL API&lt;/b&gt;&lt;/font&gt;" style="rounded=1;whiteSpace=wrap;html=1;arcSize=0;rotation=-90;" vertex="1" parent="1">
          <mxGeometry x="-425" y="590" width="280" height="160" as="geometry" />
        </mxCell>
        <mxCell id="pafvheG6Qlxp3huOtjGh-15" value="" style="endArrow=classic;html=1;exitX=0.25;exitY=0;exitDx=0;exitDy=0;entryX=0.25;entryY=1;entryDx=0;entryDy=0;" edge="1" parent="1" source="pafvheG6Qlxp3huOtjGh-11" target="pafvheG6Qlxp3huOtjGh-8">
          <mxGeometry width="50" height="50" relative="1" as="geometry">
            <mxPoint x="-240" y="410" as="sourcePoint" />
            <mxPoint x="-190" y="360" as="targetPoint" />
          </mxGeometry>
        </mxCell>
        <mxCell id="pafvheG6Qlxp3huOtjGh-16" value="" style="endArrow=classic;html=1;exitX=0.75;exitY=1;exitDx=0;exitDy=0;entryX=0.75;entryY=0;entryDx=0;entryDy=0;" edge="1" parent="1" source="pafvheG6Qlxp3huOtjGh-8" target="pafvheG6Qlxp3huOtjGh-11">
          <mxGeometry width="50" height="50" relative="1" as="geometry">
            <mxPoint x="-240" y="410" as="sourcePoint" />
            <mxPoint x="-190" y="360" as="targetPoint" />
          </mxGeometry>
        </mxCell>
        <mxCell id="pafvheG6Qlxp3huOtjGh-17" value="" style="endArrow=classic;html=1;exitX=1;exitY=0.25;exitDx=0;exitDy=0;" edge="1" parent="1" source="pafvheG6Qlxp3huOtjGh-11">
          <mxGeometry width="50" height="50" relative="1" as="geometry">
            <mxPoint x="-240" y="410" as="sourcePoint" />
            <mxPoint x="-270" y="530" as="targetPoint" />
          </mxGeometry>
        </mxCell>
        <mxCell id="pafvheG6Qlxp3huOtjGh-18" value="" style="endArrow=classic;html=1;entryX=1;entryY=0.75;entryDx=0;entryDy=0;exitX=1.011;exitY=0.413;exitDx=0;exitDy=0;exitPerimeter=0;" edge="1" parent="1" source="pafvheG6Qlxp3huOtjGh-14" target="pafvheG6Qlxp3huOtjGh-11">
          <mxGeometry width="50" height="50" relative="1" as="geometry">
            <mxPoint x="-300" y="520" as="sourcePoint" />
            <mxPoint x="-380" y="430" as="targetPoint" />
          </mxGeometry>
        </mxCell>
        <mxCell id="pafvheG6Qlxp3huOtjGh-20" value="" style="endArrow=classic;html=1;exitX=0.25;exitY=0;exitDx=0;exitDy=0;entryX=0.25;entryY=1;entryDx=0;entryDy=0;" edge="1" parent="1" source="pafvheG6Qlxp3huOtjGh-10" target="pafvheG6Qlxp3huOtjGh-13">
          <mxGeometry width="50" height="50" relative="1" as="geometry">
            <mxPoint x="50" y="179.5" as="sourcePoint" />
            <mxPoint x="220" y="179.5" as="targetPoint" />
          </mxGeometry>
        </mxCell>
        <mxCell id="pafvheG6Qlxp3huOtjGh-24" value="" style="curved=1;endArrow=classic;html=1;entryX=0.75;entryY=0;entryDx=0;entryDy=0;exitX=0.25;exitY=0;exitDx=0;exitDy=0;" edge="1" parent="1" source="pafvheG6Qlxp3huOtjGh-13" target="pafvheG6Qlxp3huOtjGh-13">
          <mxGeometry width="50" height="50" relative="1" as="geometry">
            <mxPoint x="370" y="190" as="sourcePoint" />
            <mxPoint x="450" y="430" as="targetPoint" />
            <Array as="points">
              <mxPoint x="620" y="170" />
              <mxPoint x="600" y="330" />
            </Array>
          </mxGeometry>
        </mxCell>
        <mxCell id="pafvheG6Qlxp3huOtjGh-25" value="" style="endArrow=classic;html=1;exitX=0.75;exitY=1;exitDx=0;exitDy=0;entryX=0.75;entryY=0;entryDx=0;entryDy=0;" edge="1" parent="1" source="pafvheG6Qlxp3huOtjGh-13" target="pafvheG6Qlxp3huOtjGh-10">
          <mxGeometry width="50" height="50" relative="1" as="geometry">
            <mxPoint x="560" y="410" as="sourcePoint" />
            <mxPoint x="610" y="360" as="targetPoint" />
          </mxGeometry>
        </mxCell>
        <mxCell id="pafvheG6Qlxp3huOtjGh-27" value="&lt;font size=&quot;1&quot;&gt;&lt;i&gt;&lt;b style=&quot;font-size: 20px&quot;&gt;HTTP&lt;/b&gt;&lt;/i&gt;&lt;/font&gt;" style="text;html=1;strokeColor=none;fillColor=none;align=center;verticalAlign=middle;whiteSpace=wrap;rounded=0;" vertex="1" parent="1">
          <mxGeometry x="-210" y="240" width="80" height="30" as="geometry" />
        </mxCell>
        <mxCell id="pafvheG6Qlxp3huOtjGh-28" value="&lt;font size=&quot;1&quot;&gt;&lt;i&gt;&lt;b style=&quot;font-size: 20px&quot;&gt;HTTP&lt;/b&gt;&lt;/i&gt;&lt;/font&gt;" style="text;html=1;strokeColor=none;fillColor=none;align=center;verticalAlign=middle;whiteSpace=wrap;rounded=0;" vertex="1" parent="1">
          <mxGeometry x="-270" y="450" width="80" height="30" as="geometry" />
        </mxCell>
        <mxCell id="pafvheG6Qlxp3huOtjGh-29" value="&lt;font size=&quot;1&quot;&gt;&lt;i&gt;&lt;b style=&quot;font-size: 20px&quot;&gt;db protocol&lt;/b&gt;&lt;/i&gt;&lt;/font&gt;" style="text;html=1;strokeColor=none;fillColor=none;align=center;verticalAlign=middle;whiteSpace=wrap;rounded=0;" vertex="1" parent="1">
          <mxGeometry x="395" y="235" width="80" height="30" as="geometry" />
        </mxCell>
        <mxCell id="pafvheG6Qlxp3huOtjGh-30" style="edgeStyle=orthogonalEdgeStyle;rounded=0;orthogonalLoop=1;jettySize=auto;html=1;exitX=0.5;exitY=1;exitDx=0;exitDy=0;" edge="1" parent="1" source="pafvheG6Qlxp3huOtjGh-29" target="pafvheG6Qlxp3huOtjGh-29">
          <mxGeometry relative="1" as="geometry" />
        </mxCell>
        <mxCell id="pafvheG6Qlxp3huOtjGh-31" value="&lt;font size=&quot;1&quot;&gt;&lt;i&gt;&lt;b style=&quot;font-size: 20px&quot;&gt;res&lt;/b&gt;&lt;/i&gt;&lt;/font&gt;" style="text;html=1;strokeColor=none;fillColor=none;align=center;verticalAlign=middle;whiteSpace=wrap;rounded=0;" vertex="1" parent="1">
          <mxGeometry x="-360" y="490" width="80" height="30" as="geometry" />
        </mxCell>
        <mxCell id="pafvheG6Qlxp3huOtjGh-32" value="&lt;font size=&quot;1&quot;&gt;&lt;i&gt;&lt;b style=&quot;font-size: 20px&quot;&gt;req&lt;/b&gt;&lt;/i&gt;&lt;/font&gt;" style="text;html=1;strokeColor=none;fillColor=none;align=center;verticalAlign=middle;whiteSpace=wrap;rounded=0;" vertex="1" parent="1">
          <mxGeometry x="-290" y="410" width="80" height="30" as="geometry" />
        </mxCell>
        <mxCell id="pafvheG6Qlxp3huOtjGh-33" value="&lt;font size=&quot;1&quot;&gt;&lt;i&gt;&lt;b style=&quot;font-size: 20px&quot;&gt;req&lt;/b&gt;&lt;/i&gt;&lt;/font&gt;" style="text;html=1;strokeColor=none;fillColor=none;align=center;verticalAlign=middle;whiteSpace=wrap;rounded=0;" vertex="1" parent="1">
          <mxGeometry x="-200" y="165" width="80" height="30" as="geometry" />
        </mxCell>
        <mxCell id="pafvheG6Qlxp3huOtjGh-34" value="&lt;font size=&quot;1&quot;&gt;&lt;i&gt;&lt;b style=&quot;font-size: 20px&quot;&gt;res&lt;/b&gt;&lt;/i&gt;&lt;/font&gt;" style="text;html=1;strokeColor=none;fillColor=none;align=center;verticalAlign=middle;whiteSpace=wrap;rounded=0;" vertex="1" parent="1">
          <mxGeometry x="-200" y="290" width="80" height="30" as="geometry" />
        </mxCell>
      </root>
    </mxGraphModel>
  </diagram>
</mxfile>
